<?xml version="1.0" standalone="no"?>
<!DOCTYPE svg PUBLIC "-//W3C//DTD SVG 20010904//EN"
 "http://www.w3.org/TR/2001/REC-SVG-20010904/DTD/svg10.dtd">
<svg version="1.0" xmlns="http://www.w3.org/2000/svg"
 width="260.000000pt" height="260.000000pt" viewBox="0 0 260.000000 260.000000"
 preserveAspectRatio="xMidYMid meet">
<metadata>
Created by potrace 1.11, written by Peter Selinger 2001-2013
</metadata>
<g transform="translate(0.000000,260.000000) scale(0.100000,-0.100000)"
fill="#000000" stroke="none">
<path d="M1036 2088 c-8 -5 -17 -22 -21 -38 -5 -25 -11 -30 -26 -25 -14 5
-697 9 -891 5 -30 0 -32 -4 -73 -160 -13 -52 -25 -123 -25 -158 l0 -62 125 4
c108 4 125 3 125 -10 0 -21 -58 -262 -121 -504 -28 -107 -52 -199 -53 -205 -3
-13 -31 -111 -57 -197 -12 -39 -19 -86 -17 -115 l3 -48 182 -2 c200 -1 201 -1
209 59 46 313 120 642 230 1011 5 16 17 17 126 13 66 -3 123 -7 126 -10 21
-21 -263 -662 -427 -964 -22 -41 -37 -80 -35 -87 8 -21 42 -24 236 -23 117 0
182 4 192 12 8 6 24 47 34 91 45 183 178 595 199 616 5 5 8 -152 8 -347 0
-287 3 -356 14 -363 7 -5 98 -9 201 -9 200 -1 210 2 217 49 15 99 194 649 211
649 4 0 7 -69 7 -153 1 -140 11 -331 20 -367 2 -8 6 -33 9 -55 42 -294 155
-533 286 -601 146 -76 328 -35 448 101 69 78 102 144 102 204 0 56 -7 62 -36
30 -24 -27 -52 -38 -115 -44 -114 -11 -181 57 -273 275 -20 50 -63 216 -71
275 -3 28 -8 64 -10 80 -17 130 -23 432 -11 583 8 113 37 270 68 377 24 82 25
114 5 116 -48 5 -441 3 -456 -2 -11 -5 -32 -47 -61 -126 -59 -164 -219 -576
-226 -582 -4 -4 -3 50 0 119 7 125 10 162 21 295 10 119 26 248 31 256 2 3 -3
14 -10 25 -13 16 -31 18 -210 19 -108 0 -202 -3 -210 -7z"/>
</g>
</svg>
